<?xml version="1.0" encoding="UTF-8" standalone="no"?>
<!-- Created with LogicBLOX by H.Neemann -->
<!-- created: Wed Sep 26 16:21:09 EDT 2018 -->

<svg
   xmlns:svg="http://www.w3.org/2000/svg"
   xmlns="http://www.w3.org/2000/svg"
   width="104.1mm"
   height="57.6mm"
   viewBox="54 -62 694 384">
<g stroke-linecap="square">
<path d="M 520.0,140.0 L 520.0,160.0 L 660.0,200.0 L 660.0,240.0" stroke="#0000b2" stroke-width="2.8" fill="none"/>
<path d="M 400.0,180.0 L 400.0,240.0 L 420.0,240.0" stroke="#0000b2" stroke-width="2.8" fill="none"/>
<path d="M 360.0,240.0 L 380.0,240.0 L 380.0,200.0 L 240.0,160.0 L 240.0,140.0 L 260.0,140.0 L 263.0,140.0" stroke="#0000b2" stroke-width="2.8" fill="none"/>
<path d="M 640.0,240.0 L 660.0,240.0 L 680.0,240.0" stroke="#0000b2" stroke-width="2.8" fill="none"/>
<path d="M 240.0,260.0 L 260.0,260.0 L 263.0,260.0" stroke="#0000b2" stroke-width="2.8" fill="none"/>
<path d="M 500.0,260.0 L 540.0,260.0 L 543.0,260.0" stroke="#0000b2" stroke-width="2.8" fill="none"/>
<path d="M 120.0,260.0 L 160.0,260.0" stroke="#0000b2" stroke-width="2.8" fill="none"/>
<path d="M 120.0,100.0 L 160.0,100.0" stroke="#0000b2" stroke-width="2.8" fill="none"/>
<path d="M 240.0,100.0 L 260.0,100.0 L 263.0,100.0" stroke="#0000b2" stroke-width="2.8" fill="none"/>
<path d="M 500.0,100.0 L 540.0,100.0 L 543.0,100.0" stroke="#0000b2" stroke-width="2.8" fill="none"/>
<path d="M 120.0,180.0 L 140.0,180.0 L 180.0,180.0" stroke="#0000b2" stroke-width="2.8" fill="none"/>
<path d="M 240.0,180.0 L 400.0,180.0 L 400.0,120.0 L 420.0,120.0" stroke="#0000b2" stroke-width="2.8" fill="none"/>
<path d="M 360.0,120.0 L 380.0,120.0 L 380.0,80.0 L 420.0,80.0" stroke="#0000b2" stroke-width="2.8" fill="none"/>
<path d="M 640.0,120.0 L 660.0,120.0 L 680.0,120.0" stroke="#0000b2" stroke-width="2.8" fill="none"/>
<path d="M 380.0,240.0 L 380.0,280.0 L 420.0,280.0" stroke="#0000b2" stroke-width="2.8" fill="none"/>
<path d="M 380.0,120.0 L 380.0,160.0 L 240.0,200.0 L 240.0,220.0 L 260.0,220.0 L 263.0,220.0" stroke="#0000b2" stroke-width="2.8" fill="none"/>
<path d="M 660.0,120.0 L 660.0,160.0 L 520.0,200.0 L 520.0,220.0 L 540.0,220.0 L 543.0,220.0" stroke="#0000b2" stroke-width="2.8" fill="none"/>
<path d="M 160.0,80.0 L 140.0,80.0 L 140.0,40.0 L 520.0,40.0 L 520.0,140.0 L 540.0,140.0 L 543.0,140.0" stroke="#0000b2" stroke-width="2.8" fill="none"/>
<path d="M 520.0,220.0 L 520.0,320.0 L 140.0,320.0 L 140.0,280.0 L 160.0,280.0" stroke="#0000b2" stroke-width="2.8" fill="none"/>
<path d="M 160.0,240.0 L 140.0,240.0 L 140.0,180.0 L 140.0,120.0 L 160.0,120.0" stroke="#0000b2" stroke-width="2.8" fill="none"/>
<g>
<circle cx="380.0" cy="240.0" r="4.0" stroke="#0000b2" stroke-width="2.8" fill="#0000b2" />
<circle cx="660.0" cy="240.0" r="4.0" stroke="#0000b2" stroke-width="2.8" fill="#0000b2" />
<circle cx="140.0" cy="180.0" r="4.0" stroke="#0000b2" stroke-width="2.8" fill="#0000b2" />
<circle cx="400.0" cy="180.0" r="4.0" stroke="#0000b2" stroke-width="2.8" fill="#0000b2" />
<circle cx="380.0" cy="120.0" r="4.0" stroke="#0000b2" stroke-width="2.8" fill="#0000b2" />
<circle cx="660.0" cy="120.0" r="4.0" stroke="#0000b2" stroke-width="2.8" fill="#0000b2" />
<circle cx="520.0" cy="140.0" r="4.0" stroke="#0000b2" stroke-width="2.8" fill="#0000b2" />
<circle cx="520.0" cy="220.0" r="4.0" stroke="#0000b2" stroke-width="2.8" fill="#0000b2" />
</g>
<g>
<path d="M 210.0,130.0 L 161.0,130.0 L 161.0,70.0 L 210.0,70.0 C 220.0,70.0 240.0,80.0 239.0,100.0 C 239.0,120.0 220.0,130.0 210.0,130.0 Z" stroke="#000000" stroke-width="2.8" fill="none"/>
<circle cx="160.0" cy="80.0" r="2.0" stroke="#0000b2" stroke-width="2.8" fill="#0000b2" />
<circle cx="160.0" cy="100.0" r="2.0" stroke="#0000b2" stroke-width="2.8" fill="#0000b2" />
<circle cx="160.0" cy="120.0" r="2.0" stroke="#0000b2" stroke-width="2.8" fill="#0000b2" />
<circle cx="240.0" cy="100.0" r="2.0" stroke="#b20000" stroke-width="2.8" fill="#b20000" />
</g>
<g>
<path d="M 210.0,290.0 L 161.0,290.0 L 161.0,230.0 L 210.0,230.0 C 220.0,230.0 240.0,240.0 239.0,260.0 C 239.0,280.0 220.0,290.0 210.0,290.0 Z" stroke="#000000" stroke-width="2.8" fill="none"/>
<circle cx="160.0" cy="240.0" r="2.0" stroke="#0000b2" stroke-width="2.8" fill="#0000b2" />
<circle cx="160.0" cy="260.0" r="2.0" stroke="#0000b2" stroke-width="2.8" fill="#0000b2" />
<circle cx="160.0" cy="280.0" r="2.0" stroke="#0000b2" stroke-width="2.8" fill="#0000b2" />
<circle cx="240.0" cy="260.0" r="2.0" stroke="#b20000" stroke-width="2.8" fill="#b20000" />
</g>
<g>
<path d="M 181.0,158.0 L 219.0,180.0 L 181.0,202.0 Z" stroke="#000000" stroke-width="2.8" fill="none"/>
<circle cx="230.0" cy="180.0" r="9.0" stroke="#000000" stroke-width="2.8" fill="none" />
<circle cx="180.0" cy="180.0" r="2.0" stroke="#0000b2" stroke-width="2.8" fill="#0000b2" />
<circle cx="240.0" cy="180.0" r="2.0" stroke="#b20000" stroke-width="2.8" fill="#b20000" />
</g>
<g>
<path d="M 89.0,85.0 L 119.0,85.0 L 119.0,115.0 L 89.0,115.0 Z" stroke="#000000" stroke-width="2.8" fill="none"/>
<circle cx="104.0" cy="100.0" r="9.0" stroke="#000000" stroke-width="2.8" fill="none" />
<text text-anchor="end" x="75.0" y="109.0" fill="#000000" style="font-size:24"><tspan style="font-style:italic">J</tspan></text>
<circle cx="120.0" cy="100.0" r="2.0" stroke="#b20000" stroke-width="2.8" fill="#b20000" />
</g>
<g>
<path d="M 89.0,165.0 L 119.0,165.0 L 119.0,195.0 L 89.0,195.0 Z" stroke="#000000" stroke-width="2.8" fill="none"/>
<circle cx="104.0" cy="180.0" r="9.0" stroke="#000000" stroke-width="2.8" fill="none" />
<text text-anchor="end" x="75.0" y="189.0" fill="#000000" style="font-size:24"><tspan style="font-style:italic">C</tspan></text>
<circle cx="120.0" cy="180.0" r="2.0" stroke="#b20000" stroke-width="2.8" fill="#b20000" />
</g>
<g>
<path d="M 290.0,150.0 L 260.0,150.0 C 270.0,134.0 270.0,106.0 260.0,90.0 L 280.0,90.0 C 310.0,90.0 330.0,100.0 340.0,120.0 C 330.0,140.0 310.0,150.0 290.0,150.0 Z" stroke="#000000" stroke-width="2.8" fill="none"/>
<circle cx="350.0" cy="120.0" r="9.0" stroke="#000000" stroke-width="2.8" fill="none" />
<circle cx="260.0" cy="100.0" r="2.0" stroke="#0000b2" stroke-width="2.8" fill="#0000b2" />
<circle cx="260.0" cy="140.0" r="2.0" stroke="#0000b2" stroke-width="2.8" fill="#0000b2" />
<circle cx="360.0" cy="120.0" r="2.0" stroke="#b20000" stroke-width="2.8" fill="#b20000" />
</g>
<g>
<path d="M 290.0,270.0 L 260.0,270.0 C 270.0,254.0 270.0,226.0 260.0,210.0 L 280.0,210.0 C 310.0,210.0 330.0,220.0 340.0,240.0 C 330.0,260.0 310.0,270.0 290.0,270.0 Z" stroke="#000000" stroke-width="2.8" fill="none"/>
<circle cx="350.0" cy="240.0" r="9.0" stroke="#000000" stroke-width="2.8" fill="none" />
<circle cx="260.0" cy="220.0" r="2.0" stroke="#0000b2" stroke-width="2.8" fill="#0000b2" />
<circle cx="260.0" cy="260.0" r="2.0" stroke="#0000b2" stroke-width="2.8" fill="#0000b2" />
<circle cx="360.0" cy="240.0" r="2.0" stroke="#b20000" stroke-width="2.8" fill="#b20000" />
</g>
<g>
<path d="M 470.0,130.0 L 421.0,130.0 L 421.0,70.0 L 470.0,70.0 C 480.0,70.0 500.0,80.0 499.0,100.0 C 499.0,120.0 480.0,130.0 470.0,130.0 Z" stroke="#000000" stroke-width="2.8" fill="none"/>
<circle cx="420.0" cy="80.0" r="2.0" stroke="#0000b2" stroke-width="2.8" fill="#0000b2" />
<circle cx="420.0" cy="120.0" r="2.0" stroke="#0000b2" stroke-width="2.8" fill="#0000b2" />
<circle cx="500.0" cy="100.0" r="2.0" stroke="#b20000" stroke-width="2.8" fill="#b20000" />
</g>
<g>
<path d="M 470.0,290.0 L 421.0,290.0 L 421.0,230.0 L 470.0,230.0 C 480.0,230.0 500.0,240.0 499.0,260.0 C 499.0,280.0 480.0,290.0 470.0,290.0 Z" stroke="#000000" stroke-width="2.8" fill="none"/>
<circle cx="420.0" cy="240.0" r="2.0" stroke="#0000b2" stroke-width="2.8" fill="#0000b2" />
<circle cx="420.0" cy="280.0" r="2.0" stroke="#0000b2" stroke-width="2.8" fill="#0000b2" />
<circle cx="500.0" cy="260.0" r="2.0" stroke="#b20000" stroke-width="2.8" fill="#b20000" />
</g>
<g>
<path d="M 570.0,150.0 L 540.0,150.0 C 550.0,134.0 550.0,106.0 540.0,90.0 L 560.0,90.0 C 590.0,90.0 610.0,100.0 620.0,120.0 C 610.0,140.0 590.0,150.0 570.0,150.0 Z" stroke="#000000" stroke-width="2.8" fill="none"/>
<circle cx="630.0" cy="120.0" r="9.0" stroke="#000000" stroke-width="2.8" fill="none" />
<circle cx="540.0" cy="100.0" r="2.0" stroke="#0000b2" stroke-width="2.8" fill="#0000b2" />
<circle cx="540.0" cy="140.0" r="2.0" stroke="#0000b2" stroke-width="2.8" fill="#0000b2" />
<circle cx="640.0" cy="120.0" r="2.0" stroke="#b20000" stroke-width="2.8" fill="#b20000" />
</g>
<g>
<path d="M 570.0,270.0 L 540.0,270.0 C 550.0,254.0 550.0,226.0 540.0,210.0 L 560.0,210.0 C 590.0,210.0 610.0,220.0 620.0,240.0 C 610.0,260.0 590.0,270.0 570.0,270.0 Z" stroke="#000000" stroke-width="2.8" fill="none"/>
<circle cx="630.0" cy="240.0" r="9.0" stroke="#000000" stroke-width="2.8" fill="none" />
<circle cx="540.0" cy="220.0" r="2.0" stroke="#0000b2" stroke-width="2.8" fill="#0000b2" />
<circle cx="540.0" cy="260.0" r="2.0" stroke="#0000b2" stroke-width="2.8" fill="#0000b2" />
<circle cx="640.0" cy="240.0" r="2.0" stroke="#b20000" stroke-width="2.8" fill="#b20000" />
</g>
<g>
<circle cx="696.0" cy="120.0" r="9.0" stroke="#000000" stroke-width="2.8" fill="none" />
<circle cx="696.0" cy="120.0" r="15.0" stroke="#000000" stroke-width="2.8" fill="none" />
<text text-anchor="start" x="725.0" y="129.0" fill="#000000" style="font-size:24"><tspan style="font-style:italic">Q</tspan></text>
<circle cx="680.0" cy="120.0" r="2.0" stroke="#0000b2" stroke-width="2.8" fill="#0000b2" />
</g>
<g>
<circle cx="696.0" cy="240.0" r="9.0" stroke="#000000" stroke-width="2.8" fill="none" />
<circle cx="696.0" cy="240.0" r="15.0" stroke="#000000" stroke-width="2.8" fill="none" />
<text text-anchor="start" x="725.0" y="249.0" fill="#000000" style="font-size:24"><tspan style="font-style:italic">¬Q</tspan></text>
<circle cx="680.0" cy="240.0" r="2.0" stroke="#0000b2" stroke-width="2.8" fill="#0000b2" />
</g>
<g>
<path d="M 89.0,245.0 L 119.0,245.0 L 119.0,275.0 L 89.0,275.0 Z" stroke="#000000" stroke-width="2.8" fill="none"/>
<circle cx="104.0" cy="260.0" r="9.0" stroke="#000000" stroke-width="2.8" fill="none" />
<text text-anchor="end" x="75.0" y="269.0" fill="#000000" style="font-size:24"><tspan style="font-style:italic">K</tspan></text>
<circle cx="120.0" cy="260.0" r="2.0" stroke="#b20000" stroke-width="2.8" fill="#b20000" />
</g>
<g>
<text text-anchor="start" x="100.0" y="-15.0" fill="#000000" style="font-size:60">LogicBLOX</text>
</g>
<g>
<text text-anchor="start" x="100.0" y="18.0" fill="#000000" style="font-size:24">Circuit Simulator</text>
</g>
</g>
</svg>